<?xml version="1.0" encoding="utf-8" standalone="no"?>
<!DOCTYPE svg PUBLIC "-//W3C//DTD SVG 1.1//EN"
  "http://www.w3.org/Graphics/SVG/1.1/DTD/svg11.dtd">
<!-- Created with matplotlib (https://matplotlib.org/) -->
<svg height="288pt" version="1.1" viewBox="0 0 1080 288" width="1080pt" xmlns="http://www.w3.org/2000/svg" xmlns:xlink="http://www.w3.org/1999/xlink">
 <defs>
  <style type="text/css">
*{stroke-linecap:butt;stroke-linejoin:round;}
  </style>
 </defs>
 <g id="figure_1">
  <g id="patch_1">
   <path d="M 0 288 
L 1080 288 
L 1080 0 
L 0 0 
z
" style="fill:#ffffff;"/>
  </g>
  <g id="axes_1">
   <g id="patch_2">
    <path d="M 50.87 231.368 
L 1069.2 231.368 
L 1069.2 14.76 
L 50.87 14.76 
z
" style="fill:#ffffff;"/>
   </g>
   <g id="matplotlib.axis_1">
    <g id="xtick_1">
     <g id="line2d_1">
      <defs>
       <path d="M 0 0 
L 0 3.5 
" id="mb33dcc11b7" style="stroke:#000000;stroke-width:0.8;"/>
      </defs>
      <g>
       <use style="stroke:#000000;stroke-width:0.8;" x="50.87" xlink:href="#mb33dcc11b7" y="231.368"/>
      </g>
     </g>
     <g id="text_1">
      <!-- 0 -->
      <defs>
       <path d="M 31.78125 66.40625 
Q 24.171875 66.40625 20.328125 58.90625 
Q 16.5 51.421875 16.5 36.375 
Q 16.5 21.390625 20.328125 13.890625 
Q 24.171875 6.390625 31.78125 6.390625 
Q 39.453125 6.390625 43.28125 13.890625 
Q 47.125 21.390625 47.125 36.375 
Q 47.125 51.421875 43.28125 58.90625 
Q 39.453125 66.40625 31.78125 66.40625 
z
M 31.78125 74.21875 
Q 44.046875 74.21875 50.515625 64.515625 
Q 56.984375 54.828125 56.984375 36.375 
Q 56.984375 17.96875 50.515625 8.265625 
Q 44.046875 -1.421875 31.78125 -1.421875 
Q 19.53125 -1.421875 13.0625 8.265625 
Q 6.59375 17.96875 6.59375 36.375 
Q 6.59375 54.828125 13.0625 64.515625 
Q 19.53125 74.21875 31.78125 74.21875 
z
" id="DejaVuSans-48"/>
      </defs>
      <g transform="translate(47.68875 245.966437)scale(0.1 -0.1)">
       <use xlink:href="#DejaVuSans-48"/>
      </g>
     </g>
    </g>
    <g id="xtick_2">
     <g id="line2d_2">
      <g>
       <use style="stroke:#000000;stroke-width:0.8;" x="246.702692" xlink:href="#mb33dcc11b7" y="231.368"/>
      </g>
     </g>
     <g id="text_2">
      <!-- 100 -->
      <defs>
       <path d="M 12.40625 8.296875 
L 28.515625 8.296875 
L 28.515625 63.921875 
L 10.984375 60.40625 
L 10.984375 69.390625 
L 28.421875 72.90625 
L 38.28125 72.90625 
L 38.28125 8.296875 
L 54.390625 8.296875 
L 54.390625 0 
L 12.40625 0 
z
" id="DejaVuSans-49"/>
      </defs>
      <g transform="translate(237.158942 245.966437)scale(0.1 -0.1)">
       <use xlink:href="#DejaVuSans-49"/>
       <use x="63.623047" xlink:href="#DejaVuSans-48"/>
       <use x="127.246094" xlink:href="#DejaVuSans-48"/>
      </g>
     </g>
    </g>
    <g id="xtick_3">
     <g id="line2d_3">
      <g>
       <use style="stroke:#000000;stroke-width:0.8;" x="442.535385" xlink:href="#mb33dcc11b7" y="231.368"/>
      </g>
     </g>
     <g id="text_3">
      <!-- 200 -->
      <defs>
       <path d="M 19.1875 8.296875 
L 53.609375 8.296875 
L 53.609375 0 
L 7.328125 0 
L 7.328125 8.296875 
Q 12.9375 14.109375 22.625 23.890625 
Q 32.328125 33.6875 34.8125 36.53125 
Q 39.546875 41.84375 41.421875 45.53125 
Q 43.3125 49.21875 43.3125 52.78125 
Q 43.3125 58.59375 39.234375 62.25 
Q 35.15625 65.921875 28.609375 65.921875 
Q 23.96875 65.921875 18.8125 64.3125 
Q 13.671875 62.703125 7.8125 59.421875 
L 7.8125 69.390625 
Q 13.765625 71.78125 18.9375 73 
Q 24.125 74.21875 28.421875 74.21875 
Q 39.75 74.21875 46.484375 68.546875 
Q 53.21875 62.890625 53.21875 53.421875 
Q 53.21875 48.921875 51.53125 44.890625 
Q 49.859375 40.875 45.40625 35.40625 
Q 44.1875 33.984375 37.640625 27.21875 
Q 31.109375 20.453125 19.1875 8.296875 
z
" id="DejaVuSans-50"/>
      </defs>
      <g transform="translate(432.991635 245.966437)scale(0.1 -0.1)">
       <use xlink:href="#DejaVuSans-50"/>
       <use x="63.623047" xlink:href="#DejaVuSans-48"/>
       <use x="127.246094" xlink:href="#DejaVuSans-48"/>
      </g>
     </g>
    </g>
    <g id="xtick_4">
     <g id="line2d_4">
      <g>
       <use style="stroke:#000000;stroke-width:0.8;" x="638.368077" xlink:href="#mb33dcc11b7" y="231.368"/>
      </g>
     </g>
     <g id="text_4">
      <!-- 300 -->
      <defs>
       <path d="M 40.578125 39.3125 
Q 47.65625 37.796875 51.625 33 
Q 55.609375 28.21875 55.609375 21.1875 
Q 55.609375 10.40625 48.1875 4.484375 
Q 40.765625 -1.421875 27.09375 -1.421875 
Q 22.515625 -1.421875 17.65625 -0.515625 
Q 12.796875 0.390625 7.625 2.203125 
L 7.625 11.71875 
Q 11.71875 9.328125 16.59375 8.109375 
Q 21.484375 6.890625 26.8125 6.890625 
Q 36.078125 6.890625 40.9375 10.546875 
Q 45.796875 14.203125 45.796875 21.1875 
Q 45.796875 27.640625 41.28125 31.265625 
Q 36.765625 34.90625 28.71875 34.90625 
L 20.21875 34.90625 
L 20.21875 43.015625 
L 29.109375 43.015625 
Q 36.375 43.015625 40.234375 45.921875 
Q 44.09375 48.828125 44.09375 54.296875 
Q 44.09375 59.90625 40.109375 62.90625 
Q 36.140625 65.921875 28.71875 65.921875 
Q 24.65625 65.921875 20.015625 65.03125 
Q 15.375 64.15625 9.8125 62.3125 
L 9.8125 71.09375 
Q 15.4375 72.65625 20.34375 73.4375 
Q 25.25 74.21875 29.59375 74.21875 
Q 40.828125 74.21875 47.359375 69.109375 
Q 53.90625 64.015625 53.90625 55.328125 
Q 53.90625 49.265625 50.4375 45.09375 
Q 46.96875 40.921875 40.578125 39.3125 
z
" id="DejaVuSans-51"/>
      </defs>
      <g transform="translate(628.824327 245.966437)scale(0.1 -0.1)">
       <use xlink:href="#DejaVuSans-51"/>
       <use x="63.623047" xlink:href="#DejaVuSans-48"/>
       <use x="127.246094" xlink:href="#DejaVuSans-48"/>
      </g>
     </g>
    </g>
    <g id="xtick_5">
     <g id="line2d_5">
      <g>
       <use style="stroke:#000000;stroke-width:0.8;" x="834.200769" xlink:href="#mb33dcc11b7" y="231.368"/>
      </g>
     </g>
     <g id="text_5">
      <!-- 400 -->
      <defs>
       <path d="M 37.796875 64.3125 
L 12.890625 25.390625 
L 37.796875 25.390625 
z
M 35.203125 72.90625 
L 47.609375 72.90625 
L 47.609375 25.390625 
L 58.015625 25.390625 
L 58.015625 17.1875 
L 47.609375 17.1875 
L 47.609375 0 
L 37.796875 0 
L 37.796875 17.1875 
L 4.890625 17.1875 
L 4.890625 26.703125 
z
" id="DejaVuSans-52"/>
      </defs>
      <g transform="translate(824.657019 245.966437)scale(0.1 -0.1)">
       <use xlink:href="#DejaVuSans-52"/>
       <use x="63.623047" xlink:href="#DejaVuSans-48"/>
       <use x="127.246094" xlink:href="#DejaVuSans-48"/>
      </g>
     </g>
    </g>
    <g id="xtick_6">
     <g id="line2d_6">
      <g>
       <use style="stroke:#000000;stroke-width:0.8;" x="1030.033462" xlink:href="#mb33dcc11b7" y="231.368"/>
      </g>
     </g>
     <g id="text_6">
      <!-- 500 -->
      <defs>
       <path d="M 10.796875 72.90625 
L 49.515625 72.90625 
L 49.515625 64.59375 
L 19.828125 64.59375 
L 19.828125 46.734375 
Q 21.96875 47.46875 24.109375 47.828125 
Q 26.265625 48.1875 28.421875 48.1875 
Q 40.625 48.1875 47.75 41.5 
Q 54.890625 34.8125 54.890625 23.390625 
Q 54.890625 11.625 47.5625 5.09375 
Q 40.234375 -1.421875 26.90625 -1.421875 
Q 22.3125 -1.421875 17.546875 -0.640625 
Q 12.796875 0.140625 7.71875 1.703125 
L 7.71875 11.625 
Q 12.109375 9.234375 16.796875 8.0625 
Q 21.484375 6.890625 26.703125 6.890625 
Q 35.15625 6.890625 40.078125 11.328125 
Q 45.015625 15.765625 45.015625 23.390625 
Q 45.015625 31 40.078125 35.4375 
Q 35.15625 39.890625 26.703125 39.890625 
Q 22.75 39.890625 18.8125 39.015625 
Q 14.890625 38.140625 10.796875 36.28125 
z
" id="DejaVuSans-53"/>
      </defs>
      <g transform="translate(1020.489712 245.966437)scale(0.1 -0.1)">
       <use xlink:href="#DejaVuSans-53"/>
       <use x="63.623047" xlink:href="#DejaVuSans-48"/>
       <use x="127.246094" xlink:href="#DejaVuSans-48"/>
      </g>
     </g>
    </g>
   </g>
   <g id="matplotlib.axis_2">
    <g id="ytick_1">
     <g id="line2d_7">
      <defs>
       <path d="M 0 0 
L -3.5 0 
" id="m09ed3d5750" style="stroke:#000000;stroke-width:0.8;"/>
      </defs>
      <g>
       <use style="stroke:#000000;stroke-width:0.8;" x="50.87" xlink:href="#m09ed3d5750" y="208.586881"/>
      </g>
     </g>
     <g id="text_7">
      <!-- 70 -->
      <defs>
       <path d="M 8.203125 72.90625 
L 55.078125 72.90625 
L 55.078125 68.703125 
L 28.609375 0 
L 18.3125 0 
L 43.21875 64.59375 
L 8.203125 64.59375 
z
" id="DejaVuSans-55"/>
      </defs>
      <g transform="translate(31.145 212.386099)scale(0.1 -0.1)">
       <use xlink:href="#DejaVuSans-55"/>
       <use x="63.623047" xlink:href="#DejaVuSans-48"/>
      </g>
     </g>
    </g>
    <g id="ytick_2">
     <g id="line2d_8">
      <g>
       <use style="stroke:#000000;stroke-width:0.8;" x="50.87" xlink:href="#m09ed3d5750" y="176.282401"/>
      </g>
     </g>
     <g id="text_8">
      <!-- 75 -->
      <g transform="translate(31.145 180.081619)scale(0.1 -0.1)">
       <use xlink:href="#DejaVuSans-55"/>
       <use x="63.623047" xlink:href="#DejaVuSans-53"/>
      </g>
     </g>
    </g>
    <g id="ytick_3">
     <g id="line2d_9">
      <g>
       <use style="stroke:#000000;stroke-width:0.8;" x="50.87" xlink:href="#m09ed3d5750" y="143.97792"/>
      </g>
     </g>
     <g id="text_9">
      <!-- 80 -->
      <defs>
       <path d="M 31.78125 34.625 
Q 24.75 34.625 20.71875 30.859375 
Q 16.703125 27.09375 16.703125 20.515625 
Q 16.703125 13.921875 20.71875 10.15625 
Q 24.75 6.390625 31.78125 6.390625 
Q 38.8125 6.390625 42.859375 10.171875 
Q 46.921875 13.96875 46.921875 20.515625 
Q 46.921875 27.09375 42.890625 30.859375 
Q 38.875 34.625 31.78125 34.625 
z
M 21.921875 38.8125 
Q 15.578125 40.375 12.03125 44.71875 
Q 8.5 49.078125 8.5 55.328125 
Q 8.5 64.0625 14.71875 69.140625 
Q 20.953125 74.21875 31.78125 74.21875 
Q 42.671875 74.21875 48.875 69.140625 
Q 55.078125 64.0625 55.078125 55.328125 
Q 55.078125 49.078125 51.53125 44.71875 
Q 48 40.375 41.703125 38.8125 
Q 48.828125 37.15625 52.796875 32.3125 
Q 56.78125 27.484375 56.78125 20.515625 
Q 56.78125 9.90625 50.3125 4.234375 
Q 43.84375 -1.421875 31.78125 -1.421875 
Q 19.734375 -1.421875 13.25 4.234375 
Q 6.78125 9.90625 6.78125 20.515625 
Q 6.78125 27.484375 10.78125 32.3125 
Q 14.796875 37.15625 21.921875 38.8125 
z
M 18.3125 54.390625 
Q 18.3125 48.734375 21.84375 45.5625 
Q 25.390625 42.390625 31.78125 42.390625 
Q 38.140625 42.390625 41.71875 45.5625 
Q 45.3125 48.734375 45.3125 54.390625 
Q 45.3125 60.0625 41.71875 63.234375 
Q 38.140625 66.40625 31.78125 66.40625 
Q 25.390625 66.40625 21.84375 63.234375 
Q 18.3125 60.0625 18.3125 54.390625 
z
" id="DejaVuSans-56"/>
      </defs>
      <g transform="translate(31.145 147.777139)scale(0.1 -0.1)">
       <use xlink:href="#DejaVuSans-56"/>
       <use x="63.623047" xlink:href="#DejaVuSans-48"/>
      </g>
     </g>
    </g>
    <g id="ytick_4">
     <g id="line2d_10">
      <g>
       <use style="stroke:#000000;stroke-width:0.8;" x="50.87" xlink:href="#m09ed3d5750" y="111.67344"/>
      </g>
     </g>
     <g id="text_10">
      <!-- 85 -->
      <g transform="translate(31.145 115.472659)scale(0.1 -0.1)">
       <use xlink:href="#DejaVuSans-56"/>
       <use x="63.623047" xlink:href="#DejaVuSans-53"/>
      </g>
     </g>
    </g>
    <g id="ytick_5">
     <g id="line2d_11">
      <g>
       <use style="stroke:#000000;stroke-width:0.8;" x="50.87" xlink:href="#m09ed3d5750" y="79.36896"/>
      </g>
     </g>
     <g id="text_11">
      <!-- 90 -->
      <defs>
       <path d="M 10.984375 1.515625 
L 10.984375 10.5 
Q 14.703125 8.734375 18.5 7.8125 
Q 22.3125 6.890625 25.984375 6.890625 
Q 35.75 6.890625 40.890625 13.453125 
Q 46.046875 20.015625 46.78125 33.40625 
Q 43.953125 29.203125 39.59375 26.953125 
Q 35.25 24.703125 29.984375 24.703125 
Q 19.046875 24.703125 12.671875 31.3125 
Q 6.296875 37.9375 6.296875 49.421875 
Q 6.296875 60.640625 12.9375 67.421875 
Q 19.578125 74.21875 30.609375 74.21875 
Q 43.265625 74.21875 49.921875 64.515625 
Q 56.59375 54.828125 56.59375 36.375 
Q 56.59375 19.140625 48.40625 8.859375 
Q 40.234375 -1.421875 26.421875 -1.421875 
Q 22.703125 -1.421875 18.890625 -0.6875 
Q 15.09375 0.046875 10.984375 1.515625 
z
M 30.609375 32.421875 
Q 37.25 32.421875 41.125 36.953125 
Q 45.015625 41.5 45.015625 49.421875 
Q 45.015625 57.28125 41.125 61.84375 
Q 37.25 66.40625 30.609375 66.40625 
Q 23.96875 66.40625 20.09375 61.84375 
Q 16.21875 57.28125 16.21875 49.421875 
Q 16.21875 41.5 20.09375 36.953125 
Q 23.96875 32.421875 30.609375 32.421875 
z
" id="DejaVuSans-57"/>
      </defs>
      <g transform="translate(31.145 83.168179)scale(0.1 -0.1)">
       <use xlink:href="#DejaVuSans-57"/>
       <use x="63.623047" xlink:href="#DejaVuSans-48"/>
      </g>
     </g>
    </g>
    <g id="ytick_6">
     <g id="line2d_12">
      <g>
       <use style="stroke:#000000;stroke-width:0.8;" x="50.87" xlink:href="#m09ed3d5750" y="47.06448"/>
      </g>
     </g>
     <g id="text_12">
      <!-- 95 -->
      <g transform="translate(31.145 50.863699)scale(0.1 -0.1)">
       <use xlink:href="#DejaVuSans-57"/>
       <use x="63.623047" xlink:href="#DejaVuSans-53"/>
      </g>
     </g>
    </g>
    <g id="ytick_7">
     <g id="line2d_13">
      <g>
       <use style="stroke:#000000;stroke-width:0.8;" x="50.87" xlink:href="#m09ed3d5750" y="14.76"/>
      </g>
     </g>
     <g id="text_13">
      <!-- 100 -->
      <g transform="translate(24.7825 18.559219)scale(0.1 -0.1)">
       <use xlink:href="#DejaVuSans-49"/>
       <use x="63.623047" xlink:href="#DejaVuSans-48"/>
       <use x="127.246094" xlink:href="#DejaVuSans-48"/>
      </g>
     </g>
    </g>
    <g id="text_14">
     <!-- VMAF -->
     <defs>
      <path d="M 28.609375 0 
L 0.78125 72.90625 
L 11.078125 72.90625 
L 34.1875 11.53125 
L 57.328125 72.90625 
L 67.578125 72.90625 
L 39.796875 0 
z
" id="DejaVuSans-86"/>
      <path d="M 9.8125 72.90625 
L 24.515625 72.90625 
L 43.109375 23.296875 
L 61.8125 72.90625 
L 76.515625 72.90625 
L 76.515625 0 
L 66.890625 0 
L 66.890625 64.015625 
L 48.09375 14.015625 
L 38.1875 14.015625 
L 19.390625 64.015625 
L 19.390625 0 
L 9.8125 0 
z
" id="DejaVuSans-77"/>
      <path d="M 34.1875 63.1875 
L 20.796875 26.90625 
L 47.609375 26.90625 
z
M 28.609375 72.90625 
L 39.796875 72.90625 
L 67.578125 0 
L 57.328125 0 
L 50.6875 18.703125 
L 17.828125 18.703125 
L 11.1875 0 
L 0.78125 0 
z
" id="DejaVuSans-65"/>
      <path d="M 9.8125 72.90625 
L 51.703125 72.90625 
L 51.703125 64.59375 
L 19.671875 64.59375 
L 19.671875 43.109375 
L 48.578125 43.109375 
L 48.578125 34.8125 
L 19.671875 34.8125 
L 19.671875 0 
L 9.8125 0 
z
" id="DejaVuSans-70"/>
     </defs>
     <g transform="translate(18.702812 137.094469)rotate(-90)scale(0.1 -0.1)">
      <use xlink:href="#DejaVuSans-86"/>
      <use x="68.408203" xlink:href="#DejaVuSans-77"/>
      <use x="154.6875" xlink:href="#DejaVuSans-65"/>
      <use x="223.095703" xlink:href="#DejaVuSans-70"/>
     </g>
    </g>
   </g>
   <g id="line2d_14">
    <path clip-path="url(#pe035be3d5b)" style="fill:none;stroke:#808080;stroke-linecap:square;stroke-width:0.4;"/>
   </g>
   <g id="line2d_15">
    <path clip-path="url(#pe035be3d5b)" style="fill:none;stroke:#808080;stroke-linecap:square;stroke-width:0.4;"/>
   </g>
   <g id="line2d_16">
    <path clip-path="url(#pe035be3d5b)" style="fill:none;stroke:#808080;stroke-linecap:square;stroke-width:0.4;"/>
   </g>
   <g id="line2d_17">
    <path clip-path="url(#pe035be3d5b)" style="fill:none;stroke:#808080;stroke-linecap:square;stroke-width:0.4;"/>
   </g>
   <g id="line2d_18">
    <path clip-path="url(#pe035be3d5b)" style="fill:none;stroke:#808080;stroke-linecap:square;stroke-width:0.4;"/>
   </g>
   <g id="line2d_19">
    <path clip-path="url(#pe035be3d5b)" style="fill:none;stroke:#808080;stroke-linecap:square;stroke-width:0.4;"/>
   </g>
   <g id="line2d_20">
    <path clip-path="url(#pe035be3d5b)" style="fill:none;stroke:#808080;stroke-linecap:square;stroke-width:0.4;"/>
   </g>
   <g id="line2d_21">
    <path clip-path="url(#pe035be3d5b)" style="fill:none;stroke:#808080;stroke-linecap:square;stroke-width:0.4;"/>
   </g>
   <g id="line2d_22">
    <path clip-path="url(#pe035be3d5b)" style="fill:none;stroke:#808080;stroke-linecap:square;stroke-width:0.4;"/>
   </g>
   <g id="line2d_23">
    <path clip-path="url(#pe035be3d5b)" style="fill:none;stroke:#808080;stroke-linecap:square;stroke-width:0.4;"/>
   </g>
   <g id="line2d_24">
    <path clip-path="url(#pe035be3d5b)" style="fill:none;stroke:#808080;stroke-linecap:square;stroke-width:0.4;"/>
   </g>
   <g id="line2d_25">
    <path clip-path="url(#pe035be3d5b)" style="fill:none;stroke:#808080;stroke-linecap:square;stroke-width:0.4;"/>
   </g>
   <g id="line2d_26">
    <path clip-path="url(#pe035be3d5b)" style="fill:none;stroke:#808080;stroke-linecap:square;stroke-width:0.4;"/>
   </g>
   <g id="line2d_27">
    <path clip-path="url(#pe035be3d5b)" style="fill:none;stroke:#808080;stroke-linecap:square;stroke-width:0.4;"/>
   </g>
   <g id="line2d_28">
    <path clip-path="url(#pe035be3d5b)" style="fill:none;stroke:#808080;stroke-linecap:square;stroke-width:0.4;"/>
   </g>
   <g id="line2d_29">
    <path clip-path="url(#pe035be3d5b)" style="fill:none;stroke:#808080;stroke-linecap:square;stroke-width:0.4;"/>
   </g>
   <g id="line2d_30">
    <path clip-path="url(#pe035be3d5b)" style="fill:none;stroke:#808080;stroke-linecap:square;stroke-width:0.4;"/>
   </g>
   <g id="line2d_31">
    <path clip-path="url(#pe035be3d5b)" style="fill:none;stroke:#808080;stroke-linecap:square;stroke-width:0.4;"/>
   </g>
   <g id="line2d_32">
    <path clip-path="url(#pe035be3d5b)" style="fill:none;stroke:#808080;stroke-linecap:square;stroke-width:0.4;"/>
   </g>
   <g id="line2d_33">
    <path clip-path="url(#pe035be3d5b)" style="fill:none;stroke:#808080;stroke-linecap:square;stroke-width:0.4;"/>
   </g>
   <g id="line2d_34">
    <path clip-path="url(#pe035be3d5b)" style="fill:none;stroke:#808080;stroke-linecap:square;stroke-width:0.4;"/>
   </g>
   <g id="line2d_35">
    <path clip-path="url(#pe035be3d5b)" style="fill:none;stroke:#808080;stroke-linecap:square;stroke-width:0.4;"/>
   </g>
   <g id="line2d_36">
    <path clip-path="url(#pe035be3d5b)" style="fill:none;stroke:#808080;stroke-linecap:square;stroke-width:0.4;"/>
   </g>
   <g id="line2d_37">
    <path clip-path="url(#pe035be3d5b)" style="fill:none;stroke:#808080;stroke-linecap:square;stroke-width:0.4;"/>
   </g>
   <g id="line2d_38">
    <path clip-path="url(#pe035be3d5b)" style="fill:none;stroke:#808080;stroke-linecap:square;stroke-width:0.4;"/>
   </g>
   <g id="line2d_39">
    <path clip-path="url(#pe035be3d5b)" style="fill:none;stroke:#808080;stroke-linecap:square;stroke-width:0.4;"/>
   </g>
   <g id="line2d_40">
    <path clip-path="url(#pe035be3d5b)" style="fill:none;stroke:#808080;stroke-linecap:square;stroke-width:0.4;"/>
   </g>
   <g id="line2d_41">
    <path clip-path="url(#pe035be3d5b)" style="fill:none;stroke:#808080;stroke-linecap:square;stroke-width:0.4;"/>
   </g>
   <g id="line2d_42">
    <path clip-path="url(#pe035be3d5b)" style="fill:none;stroke:#808080;stroke-linecap:square;stroke-width:0.4;"/>
   </g>
   <g id="line2d_43">
    <path clip-path="url(#pe035be3d5b)" style="fill:none;stroke:#808080;stroke-linecap:square;stroke-width:0.4;"/>
   </g>
   <g id="line2d_44">
    <path clip-path="url(#pe035be3d5b)" style="fill:none;stroke:#808080;stroke-linecap:square;stroke-width:0.4;"/>
   </g>
   <g id="line2d_45">
    <path clip-path="url(#pe035be3d5b)" style="fill:none;stroke:#808080;stroke-linecap:square;stroke-width:0.4;"/>
   </g>
   <g id="line2d_46">
    <path clip-path="url(#pe035be3d5b)" style="fill:none;stroke:#808080;stroke-linecap:square;stroke-width:0.4;"/>
   </g>
   <g id="line2d_47">
    <path clip-path="url(#pe035be3d5b)" style="fill:none;stroke:#808080;stroke-linecap:square;stroke-width:0.4;"/>
   </g>
   <g id="line2d_48">
    <path clip-path="url(#pe035be3d5b)" style="fill:none;stroke:#808080;stroke-linecap:square;stroke-width:0.4;"/>
   </g>
   <g id="line2d_49">
    <path clip-path="url(#pe035be3d5b)" style="fill:none;stroke:#808080;stroke-linecap:square;stroke-width:0.4;"/>
   </g>
   <g id="line2d_50">
    <path clip-path="url(#pe035be3d5b)" style="fill:none;stroke:#808080;stroke-linecap:square;stroke-width:0.4;"/>
   </g>
   <g id="line2d_51">
    <path clip-path="url(#pe035be3d5b)" style="fill:none;stroke:#808080;stroke-linecap:square;stroke-width:0.4;"/>
   </g>
   <g id="line2d_52">
    <path clip-path="url(#pe035be3d5b)" style="fill:none;stroke:#808080;stroke-linecap:square;stroke-width:0.4;"/>
   </g>
   <g id="line2d_53">
    <path clip-path="url(#pe035be3d5b)" style="fill:none;stroke:#808080;stroke-linecap:square;stroke-width:0.4;"/>
   </g>
   <g id="line2d_54">
    <path clip-path="url(#pe035be3d5b)" style="fill:none;stroke:#808080;stroke-linecap:square;stroke-width:0.4;"/>
   </g>
   <g id="line2d_55">
    <path clip-path="url(#pe035be3d5b)" style="fill:none;stroke:#808080;stroke-linecap:square;stroke-width:0.4;"/>
   </g>
   <g id="line2d_56">
    <path clip-path="url(#pe035be3d5b)" style="fill:none;stroke:#808080;stroke-linecap:square;stroke-width:0.4;"/>
   </g>
   <g id="line2d_57">
    <path clip-path="url(#pe035be3d5b)" style="fill:none;stroke:#808080;stroke-linecap:square;stroke-width:0.4;"/>
   </g>
   <g id="line2d_58">
    <path clip-path="url(#pe035be3d5b)" style="fill:none;stroke:#808080;stroke-linecap:square;stroke-width:0.4;"/>
   </g>
   <g id="line2d_59">
    <path clip-path="url(#pe035be3d5b)" style="fill:none;stroke:#808080;stroke-linecap:square;stroke-width:0.4;"/>
   </g>
   <g id="line2d_60">
    <path clip-path="url(#pe035be3d5b)" style="fill:none;stroke:#808080;stroke-linecap:square;stroke-width:0.4;"/>
   </g>
   <g id="line2d_61">
    <path clip-path="url(#pe035be3d5b)" style="fill:none;stroke:#808080;stroke-linecap:square;stroke-width:0.4;"/>
   </g>
   <g id="line2d_62">
    <path clip-path="url(#pe035be3d5b)" style="fill:none;stroke:#808080;stroke-linecap:square;stroke-width:0.4;"/>
   </g>
   <g id="line2d_63">
    <path clip-path="url(#pe035be3d5b)" style="fill:none;stroke:#808080;stroke-linecap:square;stroke-width:0.4;"/>
   </g>
   <g id="line2d_64">
    <path clip-path="url(#pe035be3d5b)" style="fill:none;stroke:#808080;stroke-linecap:square;stroke-width:0.4;"/>
   </g>
   <g id="line2d_65">
    <path clip-path="url(#pe035be3d5b)" style="fill:none;stroke:#808080;stroke-linecap:square;stroke-width:0.4;"/>
   </g>
   <g id="line2d_66">
    <path clip-path="url(#pe035be3d5b)" style="fill:none;stroke:#808080;stroke-linecap:square;stroke-width:0.4;"/>
   </g>
   <g id="line2d_67">
    <path clip-path="url(#pe035be3d5b)" style="fill:none;stroke:#808080;stroke-linecap:square;stroke-width:0.4;"/>
   </g>
   <g id="line2d_68">
    <path clip-path="url(#pe035be3d5b)" style="fill:none;stroke:#808080;stroke-linecap:square;stroke-width:0.4;"/>
   </g>
   <g id="line2d_69">
    <path clip-path="url(#pe035be3d5b)" style="fill:none;stroke:#808080;stroke-linecap:square;stroke-width:0.4;"/>
   </g>
   <g id="line2d_70">
    <path clip-path="url(#pe035be3d5b)" style="fill:none;stroke:#808080;stroke-linecap:square;stroke-width:0.4;"/>
   </g>
   <g id="line2d_71">
    <path clip-path="url(#pe035be3d5b)" style="fill:none;stroke:#808080;stroke-linecap:square;stroke-width:0.4;"/>
   </g>
   <g id="line2d_72">
    <path clip-path="url(#pe035be3d5b)" d="M 50.87 286.117633 
L 1069.2 286.117633 
" style="fill:none;stroke:#808080;stroke-linecap:square;stroke-width:0.4;"/>
   </g>
   <g id="line2d_73">
    <path clip-path="url(#pe035be3d5b)" d="M 50.87 279.656737 
L 1069.2 279.656737 
" style="fill:none;stroke:#808080;stroke-linecap:square;stroke-width:0.4;"/>
   </g>
   <g id="line2d_74">
    <path clip-path="url(#pe035be3d5b)" d="M 50.87 273.195841 
L 1069.2 273.195841 
" style="fill:none;stroke:#808080;stroke-linecap:square;stroke-width:0.4;"/>
   </g>
   <g id="line2d_75">
    <path clip-path="url(#pe035be3d5b)" d="M 50.87 266.734945 
L 1069.2 266.734945 
" style="fill:none;stroke:#808080;stroke-linecap:square;stroke-width:0.4;"/>
   </g>
   <g id="line2d_76">
    <path clip-path="url(#pe035be3d5b)" d="M 50.87 260.274049 
L 1069.2 260.274049 
" style="fill:none;stroke:#808080;stroke-linecap:square;stroke-width:0.4;"/>
   </g>
   <g id="line2d_77">
    <path clip-path="url(#pe035be3d5b)" d="M 50.87 253.813153 
L 1069.2 253.813153 
" style="fill:none;stroke:#808080;stroke-linecap:square;stroke-width:0.4;"/>
   </g>
   <g id="line2d_78">
    <path clip-path="url(#pe035be3d5b)" d="M 50.87 247.352257 
L 1069.2 247.352257 
" style="fill:none;stroke:#808080;stroke-linecap:square;stroke-width:0.4;"/>
   </g>
   <g id="line2d_79">
    <path clip-path="url(#pe035be3d5b)" d="M 50.87 240.891361 
L 1069.2 240.891361 
" style="fill:none;stroke:#808080;stroke-linecap:square;stroke-width:0.4;"/>
   </g>
   <g id="line2d_80">
    <path clip-path="url(#pe035be3d5b)" d="M 50.87 234.430465 
L 1069.2 234.430465 
" style="fill:none;stroke:#808080;stroke-linecap:square;stroke-width:0.4;"/>
   </g>
   <g id="line2d_81">
    <path clip-path="url(#pe035be3d5b)" d="M 50.87 227.969569 
L 1069.2 227.969569 
" style="fill:none;stroke:#808080;stroke-linecap:square;stroke-width:0.4;"/>
   </g>
   <g id="line2d_82">
    <path clip-path="url(#pe035be3d5b)" d="M 50.87 221.508673 
L 1069.2 221.508673 
" style="fill:none;stroke:#808080;stroke-linecap:square;stroke-width:0.4;"/>
   </g>
   <g id="line2d_83">
    <path clip-path="url(#pe035be3d5b)" d="M 50.87 215.047777 
L 1069.2 215.047777 
" style="fill:none;stroke:#808080;stroke-linecap:square;stroke-width:0.4;"/>
   </g>
   <g id="line2d_84">
    <path clip-path="url(#pe035be3d5b)" d="M 50.87 208.586881 
L 1069.2 208.586881 
" style="fill:none;stroke:#808080;stroke-linecap:square;stroke-width:0.4;"/>
   </g>
   <g id="line2d_85">
    <path clip-path="url(#pe035be3d5b)" d="M 50.87 202.125985 
L 1069.2 202.125985 
" style="fill:none;stroke:#808080;stroke-linecap:square;stroke-width:0.4;"/>
   </g>
   <g id="line2d_86">
    <path clip-path="url(#pe035be3d5b)" d="M 50.87 195.665089 
L 1069.2 195.665089 
" style="fill:none;stroke:#808080;stroke-linecap:square;stroke-width:0.4;"/>
   </g>
   <g id="line2d_87">
    <path clip-path="url(#pe035be3d5b)" d="M 50.87 189.204193 
L 1069.2 189.204193 
" style="fill:none;stroke:#808080;stroke-linecap:square;stroke-width:0.4;"/>
   </g>
   <g id="line2d_88">
    <path clip-path="url(#pe035be3d5b)" d="M 50.87 182.743297 
L 1069.2 182.743297 
" style="fill:none;stroke:#808080;stroke-linecap:square;stroke-width:0.4;"/>
   </g>
   <g id="line2d_89">
    <path clip-path="url(#pe035be3d5b)" d="M 50.87 176.282401 
L 1069.2 176.282401 
" style="fill:none;stroke:#808080;stroke-linecap:square;stroke-width:0.4;"/>
   </g>
   <g id="line2d_90">
    <path clip-path="url(#pe035be3d5b)" d="M 50.87 169.821505 
L 1069.2 169.821505 
" style="fill:none;stroke:#808080;stroke-linecap:square;stroke-width:0.4;"/>
   </g>
   <g id="line2d_91">
    <path clip-path="url(#pe035be3d5b)" d="M 50.87 163.360608 
L 1069.2 163.360608 
" style="fill:none;stroke:#808080;stroke-linecap:square;stroke-width:0.4;"/>
   </g>
   <g id="line2d_92">
    <path clip-path="url(#pe035be3d5b)" d="M 50.87 156.899712 
L 1069.2 156.899712 
" style="fill:none;stroke:#808080;stroke-linecap:square;stroke-width:0.4;"/>
   </g>
   <g id="line2d_93">
    <path clip-path="url(#pe035be3d5b)" d="M 50.87 150.438816 
L 1069.2 150.438816 
" style="fill:none;stroke:#808080;stroke-linecap:square;stroke-width:0.4;"/>
   </g>
   <g id="line2d_94">
    <path clip-path="url(#pe035be3d5b)" d="M 50.87 143.97792 
L 1069.2 143.97792 
" style="fill:none;stroke:#808080;stroke-linecap:square;stroke-width:0.4;"/>
   </g>
   <g id="line2d_95">
    <path clip-path="url(#pe035be3d5b)" d="M 50.87 137.517024 
L 1069.2 137.517024 
" style="fill:none;stroke:#808080;stroke-linecap:square;stroke-width:0.4;"/>
   </g>
   <g id="line2d_96">
    <path clip-path="url(#pe035be3d5b)" d="M 50.87 131.056128 
L 1069.2 131.056128 
" style="fill:none;stroke:#808080;stroke-linecap:square;stroke-width:0.4;"/>
   </g>
   <g id="line2d_97">
    <path clip-path="url(#pe035be3d5b)" d="M 50.87 124.595232 
L 1069.2 124.595232 
" style="fill:none;stroke:#808080;stroke-linecap:square;stroke-width:0.4;"/>
   </g>
   <g id="line2d_98">
    <path clip-path="url(#pe035be3d5b)" d="M 50.87 118.134336 
L 1069.2 118.134336 
" style="fill:none;stroke:#808080;stroke-linecap:square;stroke-width:0.4;"/>
   </g>
   <g id="line2d_99">
    <path clip-path="url(#pe035be3d5b)" d="M 50.87 111.67344 
L 1069.2 111.67344 
" style="fill:none;stroke:#808080;stroke-linecap:square;stroke-width:0.4;"/>
   </g>
   <g id="line2d_100">
    <path clip-path="url(#pe035be3d5b)" d="M 50.87 105.212544 
L 1069.2 105.212544 
" style="fill:none;stroke:#808080;stroke-linecap:square;stroke-width:0.4;"/>
   </g>
   <g id="line2d_101">
    <path clip-path="url(#pe035be3d5b)" d="M 50.87 98.751648 
L 1069.2 98.751648 
" style="fill:none;stroke:#808080;stroke-linecap:square;stroke-width:0.4;"/>
   </g>
   <g id="line2d_102">
    <path clip-path="url(#pe035be3d5b)" d="M 50.87 92.290752 
L 1069.2 92.290752 
" style="fill:none;stroke:#808080;stroke-linecap:square;stroke-width:0.4;"/>
   </g>
   <g id="line2d_103">
    <path clip-path="url(#pe035be3d5b)" d="M 50.87 85.829856 
L 1069.2 85.829856 
" style="fill:none;stroke:#808080;stroke-linecap:square;stroke-width:0.4;"/>
   </g>
   <g id="line2d_104">
    <path clip-path="url(#pe035be3d5b)" d="M 50.87 79.36896 
L 1069.2 79.36896 
" style="fill:none;stroke:#808080;stroke-linecap:square;stroke-width:0.4;"/>
   </g>
   <g id="line2d_105">
    <path clip-path="url(#pe035be3d5b)" d="M 50.87 72.908064 
L 1069.2 72.908064 
" style="fill:none;stroke:#808080;stroke-linecap:square;stroke-width:0.4;"/>
   </g>
   <g id="line2d_106">
    <path clip-path="url(#pe035be3d5b)" d="M 50.87 66.447168 
L 1069.2 66.447168 
" style="fill:none;stroke:#808080;stroke-linecap:square;stroke-width:0.4;"/>
   </g>
   <g id="line2d_107">
    <path clip-path="url(#pe035be3d5b)" d="M 50.87 59.986272 
L 1069.2 59.986272 
" style="fill:none;stroke:#808080;stroke-linecap:square;stroke-width:0.4;"/>
   </g>
   <g id="line2d_108">
    <path clip-path="url(#pe035be3d5b)" d="M 50.87 53.525376 
L 1069.2 53.525376 
" style="fill:none;stroke:#808080;stroke-linecap:square;stroke-width:0.4;"/>
   </g>
   <g id="line2d_109">
    <path clip-path="url(#pe035be3d5b)" d="M 50.87 47.06448 
L 1069.2 47.06448 
" style="fill:none;stroke:#808080;stroke-linecap:square;stroke-width:0.4;"/>
   </g>
   <g id="line2d_110">
    <path clip-path="url(#pe035be3d5b)" d="M 50.87 40.603584 
L 1069.2 40.603584 
" style="fill:none;stroke:#808080;stroke-linecap:square;stroke-width:0.4;"/>
   </g>
   <g id="line2d_111">
    <path clip-path="url(#pe035be3d5b)" d="M 50.87 34.142688 
L 1069.2 34.142688 
" style="fill:none;stroke:#808080;stroke-linecap:square;stroke-width:0.4;"/>
   </g>
   <g id="line2d_112">
    <path clip-path="url(#pe035be3d5b)" d="M 50.87 27.681792 
L 1069.2 27.681792 
" style="fill:none;stroke:#808080;stroke-linecap:square;stroke-width:0.4;"/>
   </g>
   <g id="line2d_113">
    <path clip-path="url(#pe035be3d5b)" d="M 50.87 21.220896 
L 1069.2 21.220896 
" style="fill:none;stroke:#808080;stroke-linecap:square;stroke-width:0.4;"/>
   </g>
   <g id="line2d_114">
    <path clip-path="url(#pe035be3d5b)" style="fill:none;stroke:#000000;stroke-linecap:square;stroke-width:0.6;"/>
   </g>
   <g id="line2d_115">
    <path clip-path="url(#pe035be3d5b)" style="fill:none;stroke:#000000;stroke-linecap:square;stroke-width:0.6;"/>
   </g>
   <g id="line2d_116">
    <path clip-path="url(#pe035be3d5b)" style="fill:none;stroke:#000000;stroke-linecap:square;stroke-width:0.6;"/>
   </g>
   <g id="line2d_117">
    <path clip-path="url(#pe035be3d5b)" style="fill:none;stroke:#000000;stroke-linecap:square;stroke-width:0.6;"/>
   </g>
   <g id="line2d_118">
    <path clip-path="url(#pe035be3d5b)" style="fill:none;stroke:#000000;stroke-linecap:square;stroke-width:0.6;"/>
   </g>
   <g id="line2d_119">
    <path clip-path="url(#pe035be3d5b)" style="fill:none;stroke:#000000;stroke-linecap:square;stroke-width:0.6;"/>
   </g>
   <g id="line2d_120">
    <path clip-path="url(#pe035be3d5b)" style="fill:none;stroke:#000000;stroke-linecap:square;stroke-width:0.6;"/>
   </g>
   <g id="line2d_121">
    <path clip-path="url(#pe035be3d5b)" style="fill:none;stroke:#000000;stroke-linecap:square;stroke-width:0.6;"/>
   </g>
   <g id="line2d_122">
    <path clip-path="url(#pe035be3d5b)" style="fill:none;stroke:#000000;stroke-linecap:square;stroke-width:0.6;"/>
   </g>
   <g id="line2d_123">
    <path clip-path="url(#pe035be3d5b)" style="fill:none;stroke:#000000;stroke-linecap:square;stroke-width:0.6;"/>
   </g>
   <g id="line2d_124">
    <path clip-path="url(#pe035be3d5b)" style="fill:none;stroke:#000000;stroke-linecap:square;stroke-width:0.6;"/>
   </g>
   <g id="line2d_125">
    <path clip-path="url(#pe035be3d5b)" style="fill:none;stroke:#000000;stroke-linecap:square;stroke-width:0.6;"/>
   </g>
   <g id="line2d_126">
    <path clip-path="url(#pe035be3d5b)" d="M 50.87 273.195841 
L 1069.2 273.195841 
" style="fill:none;stroke:#000000;stroke-linecap:square;stroke-width:0.6;"/>
   </g>
   <g id="line2d_127">
    <path clip-path="url(#pe035be3d5b)" d="M 50.87 240.891361 
L 1069.2 240.891361 
" style="fill:none;stroke:#000000;stroke-linecap:square;stroke-width:0.6;"/>
   </g>
   <g id="line2d_128">
    <path clip-path="url(#pe035be3d5b)" d="M 50.87 208.586881 
L 1069.2 208.586881 
" style="fill:none;stroke:#000000;stroke-linecap:square;stroke-width:0.6;"/>
   </g>
   <g id="line2d_129">
    <path clip-path="url(#pe035be3d5b)" d="M 50.87 176.282401 
L 1069.2 176.282401 
" style="fill:none;stroke:#000000;stroke-linecap:square;stroke-width:0.6;"/>
   </g>
   <g id="line2d_130">
    <path clip-path="url(#pe035be3d5b)" d="M 50.87 143.97792 
L 1069.2 143.97792 
" style="fill:none;stroke:#000000;stroke-linecap:square;stroke-width:0.6;"/>
   </g>
   <g id="line2d_131">
    <path clip-path="url(#pe035be3d5b)" d="M 50.87 111.67344 
L 1069.2 111.67344 
" style="fill:none;stroke:#000000;stroke-linecap:square;stroke-width:0.6;"/>
   </g>
   <g id="line2d_132">
    <path clip-path="url(#pe035be3d5b)" d="M 50.87 79.36896 
L 1069.2 79.36896 
" style="fill:none;stroke:#000000;stroke-linecap:square;stroke-width:0.6;"/>
   </g>
   <g id="line2d_133">
    <path clip-path="url(#pe035be3d5b)" d="M 50.87 47.06448 
L 1069.2 47.06448 
" style="fill:none;stroke:#000000;stroke-linecap:square;stroke-width:0.6;"/>
   </g>
   <g id="line2d_134">
    <path clip-path="url(#pe035be3d5b)" d="M 50.87 131.327486 
L 52.828327 120.098449 
L 54.786654 125.725889 
L 56.744981 105.742338 
L 58.703308 124.091282 
L 60.661635 121.222645 
L 62.619962 126.727328 
L 64.578288 84.498912 
L 66.536615 116.906766 
L 68.494942 120.266432 
L 70.453269 124.595232 
L 72.411596 107.015134 
L 74.369923 137.077683 
L 76.32825 132.29016 
L 78.286577 142.285166 
L 80.244904 94.72651 
L 82.203231 122.889556 
L 84.161558 123.244905 
L 86.119885 137.025996 
L 88.078212 126.178152 
L 90.036538 149.146637 
L 91.994865 143.532119 
L 93.953192 146.988698 
L 95.911519 107.448014 
L 97.869846 168.044758 
L 99.828173 161.700158 
L 101.7865 175.875364 
L 103.744827 140.069078 
L 105.703154 154.018153 
L 107.661481 136.244228 
L 109.619808 132.328925 
L 111.578135 71.764486 
L 113.536462 109.677023 
L 115.494788 121.571533 
L 117.453115 138.253567 
L 119.411442 134.764683 
L 121.369769 165.53793 
L 123.328096 157.74609 
L 125.286423 156.389302 
L 127.24475 102.033783 
L 129.203077 129.602427 
L 131.161404 136.056862 
L 133.119731 156.699425 
L 135.078058 128.504074 
L 137.036385 147.570179 
L 138.994712 129.654114 
L 140.953038 136.347602 
L 142.911365 91.83849 
L 144.869692 160.440283 
L 146.828019 152.202641 
L 148.786346 127.922594 
L 150.744673 48.046536 
L 152.703 99.766009 
L 154.661327 160.55658 
L 156.619654 176.366392 
L 158.577981 142.976482 
L 160.536308 178.866759 
L 162.494635 179.002438 
L 164.452962 185.818683 
L 166.411288 168.400107 
L 168.369615 212.851072 
L 170.327942 170.861709 
L 172.286269 167.017476 
L 174.244596 103.487485 
L 176.202923 151.504864 
L 178.16125 186.981644 
L 180.119577 181.728936 
L 182.077904 205.388737 
L 184.036231 178.879681 
L 185.994558 182.375025 
L 187.952885 144.720923 
L 189.911212 231.368 
L 191.869538 217.729048 
L 193.827865 176.514993 
L 195.786192 191.064931 
L 197.744519 165.82221 
L 199.702846 159.232096 
L 201.661173 109.399205 
L 203.6195 75.686249 
L 205.577827 89.183061 
L 207.536154 88.440058 
L 209.494481 98.079715 
L 211.452808 93.324496 
L 213.411135 107.609537 
L 215.369462 97.181651 
L 217.327788 111.079038 
L 219.286115 73.198805 
L 221.244442 94.842806 
L 223.202769 84.569982 
L 225.161096 98.280003 
L 227.119423 90.578615 
L 229.07775 95.081859 
L 231.036077 74.904481 
L 232.994404 73.541232 
L 234.952731 73.844894 
L 236.911058 96.67124 
L 238.869385 88.685572 
L 240.827712 101.00004 
L 242.786038 89.635324 
L 244.744365 105.089787 
L 246.702692 102.66049 
L 248.661019 104.870117 
L 250.619346 94.480996 
L 252.577673 116.583721 
L 254.536 121.494002 
L 256.494327 129.240617 
L 258.452654 115.537056 
L 260.410981 126.798398 
L 262.369308 116.868001 
L 264.327635 117.139358 
L 266.285962 85.196688 
L 268.244288 99.087615 
L 270.202615 110.129286 
L 272.160942 100.702839 
L 274.119269 115.801953 
L 276.077596 110.51694 
L 278.035923 113.560022 
L 279.99425 117.578699 
L 281.952577 80.124885 
L 283.910904 92.607336 
L 285.869231 95.534122 
L 287.827558 106.091226 
L 289.785885 94.319474 
L 291.744212 107.570771 
L 293.702538 104.850734 
L 295.660865 101.00004 
L 297.619192 81.106941 
L 299.577519 107.002212 
L 301.535846 109.890233 
L 303.494173 121.558611 
L 305.4525 96.761692 
L 307.410827 94.674823 
L 309.369154 103.157979 
L 311.327481 106.821307 
L 313.285808 79.136368 
L 315.244135 98.26062 
L 317.202462 100.812674 
L 319.160788 105.748799 
L 321.119115 92.594414 
L 323.077442 104.249871 
L 325.035769 98.11848 
L 326.994096 102.8737 
L 328.952423 81.087559 
L 330.91075 100.231193 
L 332.869077 97.233338 
L 334.827404 104.469541 
L 336.785731 86.372571 
L 338.744058 93.091903 
L 340.702385 96.994285 
L 342.660712 99.824157 
L 344.619038 68.521116 
L 346.577365 90.274953 
L 348.535692 92.898076 
L 350.494019 101.600903 
L 352.452346 89.09907 
L 354.410673 100.909588 
L 356.369 96.729388 
L 358.327327 101.995018 
L 360.285654 96.154368 
L 362.243981 119.355446 
L 364.202308 115.672735 
L 366.160635 117.507629 
L 368.118962 105.981391 
L 370.077288 115.659813 
L 372.035615 113.702162 
L 373.993942 112.913932 
L 375.952269 89.842073 
L 377.910596 104.663368 
L 379.868923 66.8219 
L 381.82725 89.144296 
L 383.785577 85.500351 
L 385.743904 91.618819 
L 387.702231 74.814029 
L 389.660558 94.054577 
L 391.618885 87.134957 
L 393.577212 102.292219 
L 395.535538 52.226736 
L 397.493865 92.910998 
L 399.452192 105.199623 
L 401.410519 109.670563 
L 403.368846 97.194572 
L 405.327173 122.540667 
L 407.2855 110.749532 
L 409.243827 106.440115 
L 411.202154 52.523937 
L 413.160481 91.043799 
L 415.118808 105.626042 
L 417.077135 115.737344 
L 419.035462 109.063238 
L 420.993788 115.737344 
L 422.952115 99.91461 
L 424.910442 82.82554 
L 426.868769 71.241153 
L 428.827096 101.613825 
L 430.785423 118.567216 
L 432.74375 132.14802 
L 434.702077 106.433654 
L 436.660404 130.739544 
L 438.618731 116.751705 
L 440.577058 119.523429 
L 442.535385 53.292784 
L 444.493712 81.042332 
L 446.452038 90.061743 
L 448.410365 94.558527 
L 450.368692 105.238388 
L 452.327019 138.376324 
L 454.285346 130.293743 
L 456.243673 126.856546 
L 458.202 82.39912 
L 460.160327 122.437293 
L 462.118654 122.889556 
L 464.076981 137.368424 
L 466.035308 117.921127 
L 467.993635 116.196068 
L 469.951962 99.591565 
L 471.910288 95.056016 
L 473.868615 76.254808 
L 475.826942 121.47462 
L 477.785269 119.924005 
L 479.743596 104.721516 
L 481.701923 138.260027 
L 483.66025 129.492592 
L 485.618577 128.090577 
L 487.576904 100.017984 
L 489.535231 123.974986 
L 491.493558 42.800289 
L 493.451885 66.421325 
L 495.410212 31.461416 
L 497.368538 122.734494 
L 499.326865 128.135803 
L 501.285192 127.17313 
L 503.243519 69.800373 
L 505.201846 94.558527 
L 509.1185 129.376295 
L 511.076827 114.361173 
L 513.035154 134.008758 
L 514.993481 120.279354 
L 516.951808 113.753849 
L 518.910135 72.578558 
L 520.868462 142.989403 
L 522.826788 123.613176 
L 524.785115 121.565072 
L 526.743442 109.689945 
L 528.701769 136.263611 
L 530.660096 128.245639 
L 532.618423 127.31527 
L 534.57675 69.005683 
L 536.535077 110.348957 
L 538.493404 141.122204 
L 540.451731 128.846502 
L 542.410058 141.277266 
L 544.368385 155.969343 
L 546.326712 121.326019 
L 548.285038 141.529241 
L 550.243365 132.089872 
L 552.201692 117.888822 
L 554.160019 126.856546 
L 556.118346 106.440115 
L 558.076673 60.768041 
L 560.035 78.238303 
L 561.993327 89.867916 
L 563.951654 89.570715 
L 565.909981 101.755965 
L 567.868308 93.104825 
L 569.826635 113.217594 
L 571.784962 88.969852 
L 573.743288 103.397033 
L 575.701615 79.155751 
L 577.659942 99.539878 
L 579.618269 92.70425 
L 581.576596 102.15654 
L 583.534923 91.890177 
L 585.49325 92.736554 
L 587.451577 84.169406 
L 589.409904 85.971996 
L 591.368231 55.986978 
L 593.326558 84.150023 
L 595.284885 77.973407 
L 597.243212 85.332367 
L 599.201538 71.79679 
L 601.159865 100.773909 
L 603.118192 95.682723 
L 605.076519 95.618114 
L 607.034846 75.712093 
L 608.993173 93.182356 
L 610.9515 85.300063 
L 612.909827 88.23977 
L 614.868154 92.471657 
L 616.826481 105.102709 
L 618.784808 81.856405 
L 620.743135 80.467313 
L 622.701462 41.230291 
L 624.659788 70.523994 
L 626.618115 62.467256 
L 628.576442 66.744369 
L 630.534769 52.892208 
L 632.493096 72.727159 
L 634.451423 74.090408 
L 636.40975 66.905892 
L 638.368077 44.938845 
L 640.326404 64.431369 
L 642.284731 73.418475 
L 644.243058 76.758758 
L 646.201385 65.297129 
L 648.159712 79.239742 
L 652.076365 54.933851 
L 654.034692 14.76 
L 655.993019 54.332988 
L 657.951346 62.376804 
L 659.909673 77.488839 
L 661.868 63.365321 
L 663.826327 82.760931 
L 665.784654 93.64754 
L 667.742981 99.203911 
L 669.701308 78.774558 
L 671.659635 117.29442 
L 673.617962 107.783981 
L 675.576288 101.497529 
L 677.534615 88.801868 
L 679.492942 99.494651 
L 681.451269 84.292163 
L 683.409596 71.279918 
L 685.367923 31.63586 
L 687.32625 75.505344 
L 689.284577 76.98489 
L 691.242904 73.45724 
L 693.201231 70.407697 
L 695.159558 93.078982 
L 697.117885 91.857872 
L 699.076212 86.320884 
L 701.034538 58.177221 
L 702.992865 78.451513 
L 704.951192 78.031555 
L 706.909519 82.25052 
L 708.867846 58.584258 
L 710.826173 76.965507 
L 714.742827 66.143506 
L 716.701154 41.695476 
L 718.659481 67.771652 
L 720.617808 70.142801 
L 722.576135 81.597969 
L 724.534462 78.057398 
L 726.492788 95.908854 
L 728.451115 93.699228 
L 730.409442 95.353217 
L 732.367769 64.663961 
L 734.326096 86.669773 
L 736.284423 90.384788 
L 738.24275 101.930409 
L 740.201077 78.109085 
L 742.159404 84.330928 
L 744.117731 80.938958 
L 746.076058 91.12133 
L 748.034385 47.471517 
L 749.992712 75.25983 
L 751.951038 69.541937 
L 753.909365 92.63318 
L 755.867692 64.114785 
L 757.826019 78.399826 
L 759.784346 72.449341 
L 761.742673 87.897343 
L 763.701 54.836938 
L 765.659327 79.485256 
L 767.617654 79.840606 
L 769.575981 87.076809 
L 771.534308 66.847744 
L 773.492635 91.043799 
L 775.450962 73.295718 
L 777.409288 74.594358 
L 779.367615 39.531075 
L 781.325942 71.467284 
L 783.284269 77.915259 
L 785.242596 109.018012 
L 787.200923 93.49894 
L 789.15925 104.973491 
L 791.117577 101.568599 
L 793.075904 116.971375 
L 795.034231 107.77752 
L 796.992558 123.225522 
L 798.950885 117.229811 
L 800.909212 122.185318 
L 802.867538 102.718638 
L 804.825865 97.207494 
L 806.784192 75.789624 
L 808.742519 76.823367 
L 810.700846 47.633039 
L 812.659173 67.390459 
L 814.6175 64.786718 
L 816.575827 86.314423 
L 820.492481 87.231871 
L 822.450808 85.261297 
L 824.409135 104.404932 
L 826.367462 82.489573 
L 828.325788 97.181651 
L 830.284115 94.125647 
L 832.242442 103.991435 
L 834.200769 89.854994 
L 836.159096 95.456591 
L 838.117423 89.073226 
L 840.07575 94.984946 
L 842.034077 70.297862 
L 843.992404 104.217566 
L 845.950731 104.114192 
L 847.909058 106.343201 
L 849.867385 96.206055 
L 851.825712 104.799047 
L 853.784038 100.011523 
L 855.742365 107.376944 
L 857.700692 116.208989 
L 859.659019 88.058865 
L 861.617346 55.231053 
L 863.575673 72.223209 
L 865.534 92.794702 
L 867.492327 77.792502 
L 869.450654 91.948325 
L 871.408981 82.877227 
L 873.367308 83.820518 
L 875.325635 62.745075 
L 877.283962 55.127678 
L 879.242288 83.129202 
L 881.200615 78.373982 
L 883.158942 82.819079 
L 885.117269 74.620202 
L 887.075596 102.182384 
L 889.033923 99.908149 
L 890.99225 88.711416 
L 892.950577 67.377537 
L 894.908904 103.707156 
L 896.867231 104.547072 
L 898.825558 121.04174 
L 900.783885 106.640402 
L 902.742212 124.136509 
L 904.700538 117.572238 
L 906.658865 115.033106 
L 908.617192 52.452867 
L 910.575519 86.14644 
L 912.533846 90.61738 
L 914.492173 115.110637 
L 916.4505 106.369045 
L 918.408827 131.023824 
L 920.367154 125.680663 
L 922.325481 110.749532 
L 924.283808 83.801135 
L 926.242135 110.542784 
L 928.200462 104.288636 
L 930.158788 116.028084 
L 932.117115 100.49609 
L 934.075442 114.722983 
L 936.033769 99.675556 
L 937.992096 96.063916 
L 939.950423 38.154904 
L 941.90875 72.727159 
L 943.867077 98.312307 
L 945.825404 113.501874 
L 947.783731 141.516319 
L 949.742058 146.781949 
L 951.700385 152.939183 
L 953.658712 103.474563 
L 955.617038 130.952754 
L 957.575365 126.430127 
L 959.533692 131.973576 
L 961.492019 103.694234 
L 963.450346 105.257771 
L 965.408673 101.885183 
L 967.367 86.837756 
L 969.325327 72.759464 
L 971.283654 14.76 
L 973.241981 34.795239 
L 975.200308 62.887214 
L 977.158635 80.777436 
L 979.116962 100.399177 
L 981.075288 148.08705 
L 983.033615 160.524275 
L 984.991942 14.76 
L 986.950269 102.266376 
L 990.866923 185.967284 
L 992.82525 171.249363 
L 994.783577 149.469682 
L 996.741904 102.188845 
L 998.700231 130.700779 
L 1000.658558 154.237823 
L 1002.616885 159.329009 
L 1004.575212 159.303166 
L 1006.533538 157.526419 
L 1008.491865 149.45676 
L 1010.450192 130.991519 
L 1012.408519 139.616816 
L 1014.366846 130.009463 
L 1016.325173 140.896073 
L 1018.2835 124.349718 
L 1020.241827 145.883885 
L 1022.200154 159.471149 
L 1024.158481 164.16822 
L 1026.116808 148.138737 
L 1028.075135 157.500576 
L 1030.033462 138.860891 
L 1031.991788 140.779777 
L 1033.950115 78.102625 
L 1035.908442 94.319474 
L 1039.825096 113.605248 
L 1041.783423 111.641136 
L 1043.74175 124.730911 
L 1045.700077 133.433738 
L 1047.658404 108.623897 
L 1049.616731 38.096756 
L 1051.575058 83.878666 
L 1053.533385 114.910349 
L 1055.491712 107.951964 
L 1057.450038 81.02295 
L 1059.408365 90.862894 
L 1061.366692 73.644606 
L 1063.325019 81.610891 
L 1065.283346 50.88287 
L 1067.241673 95.689184 
L 1069.2 108.514062 
L 1069.2 108.514062 
" style="fill:none;stroke:#1f77b4;stroke-linecap:square;stroke-width:0.7;"/>
   </g>
   <g id="patch_3">
    <path d="M 50.87 231.368 
L 50.87 14.76 
" style="fill:none;stroke:#000000;stroke-linecap:square;stroke-linejoin:miter;stroke-width:0.8;"/>
   </g>
   <g id="patch_4">
    <path d="M 1069.2 231.368 
L 1069.2 14.76 
" style="fill:none;stroke:#000000;stroke-linecap:square;stroke-linejoin:miter;stroke-width:0.8;"/>
   </g>
   <g id="patch_5">
    <path d="M 50.87 231.368 
L 1069.2 231.368 
" style="fill:none;stroke:#000000;stroke-linecap:square;stroke-linejoin:miter;stroke-width:0.8;"/>
   </g>
   <g id="patch_6">
    <path d="M 50.87 14.76 
L 1069.2 14.76 
" style="fill:none;stroke:#000000;stroke-linecap:square;stroke-linejoin:miter;stroke-width:0.8;"/>
   </g>
   <g id="legend_1">
    <g id="patch_7">
     <path d="M 447.213906 278.074338 
L 676.856094 278.074338 
Q 678.856094 278.074338 678.856094 276.074338 
L 678.856094 251.1984 
Q 678.856094 249.1984 676.856094 249.1984 
L 447.213906 249.1984 
Q 445.213906 249.1984 445.213906 251.1984 
L 445.213906 276.074338 
Q 445.213906 278.074338 447.213906 278.074338 
z
" style="fill:#4c4c4c;opacity:0.5;stroke:#4c4c4c;stroke-linejoin:miter;"/>
    </g>
    <g id="patch_8">
     <path d="M 445.213906 276.074338 
L 674.856094 276.074338 
Q 676.856094 276.074338 676.856094 274.074338 
L 676.856094 249.1984 
Q 676.856094 247.1984 674.856094 247.1984 
L 445.213906 247.1984 
Q 443.213906 247.1984 443.213906 249.1984 
L 443.213906 274.074338 
Q 443.213906 276.074338 445.213906 276.074338 
z
" style="fill:#ffffff;stroke:#cccccc;stroke-linejoin:miter;"/>
    </g>
    <g id="line2d_135">
     <path d="M 447.213906 261.935587 
L 467.213906 261.935587 
" style="fill:none;stroke:#1f77b4;stroke-linecap:square;stroke-width:0.7;"/>
    </g>
    <g id="line2d_136"/>
    <g id="text_15">
     <!-- Frames: 521 Mean:86.194 -->
     <defs>
      <path d="M 41.109375 46.296875 
Q 39.59375 47.171875 37.8125 47.578125 
Q 36.03125 48 33.890625 48 
Q 26.265625 48 22.1875 43.046875 
Q 18.109375 38.09375 18.109375 28.8125 
L 18.109375 0 
L 9.078125 0 
L 9.078125 54.6875 
L 18.109375 54.6875 
L 18.109375 46.1875 
Q 20.953125 51.171875 25.484375 53.578125 
Q 30.03125 56 36.53125 56 
Q 37.453125 56 38.578125 55.875 
Q 39.703125 55.765625 41.0625 55.515625 
z
" id="DejaVuSans-114"/>
      <path d="M 34.28125 27.484375 
Q 23.390625 27.484375 19.1875 25 
Q 14.984375 22.515625 14.984375 16.5 
Q 14.984375 11.71875 18.140625 8.90625 
Q 21.296875 6.109375 26.703125 6.109375 
Q 34.1875 6.109375 38.703125 11.40625 
Q 43.21875 16.703125 43.21875 25.484375 
L 43.21875 27.484375 
z
M 52.203125 31.203125 
L 52.203125 0 
L 43.21875 0 
L 43.21875 8.296875 
Q 40.140625 3.328125 35.546875 0.953125 
Q 30.953125 -1.421875 24.3125 -1.421875 
Q 15.921875 -1.421875 10.953125 3.296875 
Q 6 8.015625 6 15.921875 
Q 6 25.140625 12.171875 29.828125 
Q 18.359375 34.515625 30.609375 34.515625 
L 43.21875 34.515625 
L 43.21875 35.40625 
Q 43.21875 41.609375 39.140625 45 
Q 35.0625 48.390625 27.6875 48.390625 
Q 23 48.390625 18.546875 47.265625 
Q 14.109375 46.140625 10.015625 43.890625 
L 10.015625 52.203125 
Q 14.9375 54.109375 19.578125 55.046875 
Q 24.21875 56 28.609375 56 
Q 40.484375 56 46.34375 49.84375 
Q 52.203125 43.703125 52.203125 31.203125 
z
" id="DejaVuSans-97"/>
      <path d="M 52 44.1875 
Q 55.375 50.25 60.0625 53.125 
Q 64.75 56 71.09375 56 
Q 79.640625 56 84.28125 50.015625 
Q 88.921875 44.046875 88.921875 33.015625 
L 88.921875 0 
L 79.890625 0 
L 79.890625 32.71875 
Q 79.890625 40.578125 77.09375 44.375 
Q 74.3125 48.1875 68.609375 48.1875 
Q 61.625 48.1875 57.5625 43.546875 
Q 53.515625 38.921875 53.515625 30.90625 
L 53.515625 0 
L 44.484375 0 
L 44.484375 32.71875 
Q 44.484375 40.625 41.703125 44.40625 
Q 38.921875 48.1875 33.109375 48.1875 
Q 26.21875 48.1875 22.15625 43.53125 
Q 18.109375 38.875 18.109375 30.90625 
L 18.109375 0 
L 9.078125 0 
L 9.078125 54.6875 
L 18.109375 54.6875 
L 18.109375 46.1875 
Q 21.1875 51.21875 25.484375 53.609375 
Q 29.78125 56 35.6875 56 
Q 41.65625 56 45.828125 52.96875 
Q 50 49.953125 52 44.1875 
z
" id="DejaVuSans-109"/>
      <path d="M 56.203125 29.59375 
L 56.203125 25.203125 
L 14.890625 25.203125 
Q 15.484375 15.921875 20.484375 11.0625 
Q 25.484375 6.203125 34.421875 6.203125 
Q 39.59375 6.203125 44.453125 7.46875 
Q 49.3125 8.734375 54.109375 11.28125 
L 54.109375 2.78125 
Q 49.265625 0.734375 44.1875 -0.34375 
Q 39.109375 -1.421875 33.890625 -1.421875 
Q 20.796875 -1.421875 13.15625 6.1875 
Q 5.515625 13.8125 5.515625 26.8125 
Q 5.515625 40.234375 12.765625 48.109375 
Q 20.015625 56 32.328125 56 
Q 43.359375 56 49.78125 48.890625 
Q 56.203125 41.796875 56.203125 29.59375 
z
M 47.21875 32.234375 
Q 47.125 39.59375 43.09375 43.984375 
Q 39.0625 48.390625 32.421875 48.390625 
Q 24.90625 48.390625 20.390625 44.140625 
Q 15.875 39.890625 15.1875 32.171875 
z
" id="DejaVuSans-101"/>
      <path d="M 44.28125 53.078125 
L 44.28125 44.578125 
Q 40.484375 46.53125 36.375 47.5 
Q 32.28125 48.484375 27.875 48.484375 
Q 21.1875 48.484375 17.84375 46.4375 
Q 14.5 44.390625 14.5 40.28125 
Q 14.5 37.15625 16.890625 35.375 
Q 19.28125 33.59375 26.515625 31.984375 
L 29.59375 31.296875 
Q 39.15625 29.25 43.1875 25.515625 
Q 47.21875 21.78125 47.21875 15.09375 
Q 47.21875 7.46875 41.1875 3.015625 
Q 35.15625 -1.421875 24.609375 -1.421875 
Q 20.21875 -1.421875 15.453125 -0.5625 
Q 10.6875 0.296875 5.421875 2 
L 5.421875 11.28125 
Q 10.40625 8.6875 15.234375 7.390625 
Q 20.0625 6.109375 24.8125 6.109375 
Q 31.15625 6.109375 34.5625 8.28125 
Q 37.984375 10.453125 37.984375 14.40625 
Q 37.984375 18.0625 35.515625 20.015625 
Q 33.0625 21.96875 24.703125 23.78125 
L 21.578125 24.515625 
Q 13.234375 26.265625 9.515625 29.90625 
Q 5.8125 33.546875 5.8125 39.890625 
Q 5.8125 47.609375 11.28125 51.796875 
Q 16.75 56 26.8125 56 
Q 31.78125 56 36.171875 55.265625 
Q 40.578125 54.546875 44.28125 53.078125 
z
" id="DejaVuSans-115"/>
      <path d="M 11.71875 12.40625 
L 22.015625 12.40625 
L 22.015625 0 
L 11.71875 0 
z
M 11.71875 51.703125 
L 22.015625 51.703125 
L 22.015625 39.3125 
L 11.71875 39.3125 
z
" id="DejaVuSans-58"/>
      <path id="DejaVuSans-32"/>
      <path d="M 54.890625 33.015625 
L 54.890625 0 
L 45.90625 0 
L 45.90625 32.71875 
Q 45.90625 40.484375 42.875 44.328125 
Q 39.84375 48.1875 33.796875 48.1875 
Q 26.515625 48.1875 22.3125 43.546875 
Q 18.109375 38.921875 18.109375 30.90625 
L 18.109375 0 
L 9.078125 0 
L 9.078125 54.6875 
L 18.109375 54.6875 
L 18.109375 46.1875 
Q 21.34375 51.125 25.703125 53.5625 
Q 30.078125 56 35.796875 56 
Q 45.21875 56 50.046875 50.171875 
Q 54.890625 44.34375 54.890625 33.015625 
z
" id="DejaVuSans-110"/>
      <path d="M 33.015625 40.375 
Q 26.375 40.375 22.484375 35.828125 
Q 18.609375 31.296875 18.609375 23.390625 
Q 18.609375 15.53125 22.484375 10.953125 
Q 26.375 6.390625 33.015625 6.390625 
Q 39.65625 6.390625 43.53125 10.953125 
Q 47.40625 15.53125 47.40625 23.390625 
Q 47.40625 31.296875 43.53125 35.828125 
Q 39.65625 40.375 33.015625 40.375 
z
M 52.59375 71.296875 
L 52.59375 62.3125 
Q 48.875 64.0625 45.09375 64.984375 
Q 41.3125 65.921875 37.59375 65.921875 
Q 27.828125 65.921875 22.671875 59.328125 
Q 17.53125 52.734375 16.796875 39.40625 
Q 19.671875 43.65625 24.015625 45.921875 
Q 28.375 48.1875 33.59375 48.1875 
Q 44.578125 48.1875 50.953125 41.515625 
Q 57.328125 34.859375 57.328125 23.390625 
Q 57.328125 12.15625 50.6875 5.359375 
Q 44.046875 -1.421875 33.015625 -1.421875 
Q 20.359375 -1.421875 13.671875 8.265625 
Q 6.984375 17.96875 6.984375 36.375 
Q 6.984375 53.65625 15.1875 63.9375 
Q 23.390625 74.21875 37.203125 74.21875 
Q 40.921875 74.21875 44.703125 73.484375 
Q 48.484375 72.75 52.59375 71.296875 
z
" id="DejaVuSans-54"/>
      <path d="M 10.6875 12.40625 
L 21 12.40625 
L 21 0 
L 10.6875 0 
z
" id="DejaVuSans-46"/>
     </defs>
     <g transform="translate(475.213906 258.796837)scale(0.1 -0.1)">
      <use xlink:href="#DejaVuSans-70"/>
      <use x="50.269531" xlink:href="#DejaVuSans-114"/>
      <use x="91.382812" xlink:href="#DejaVuSans-97"/>
      <use x="152.662109" xlink:href="#DejaVuSans-109"/>
      <use x="250.074219" xlink:href="#DejaVuSans-101"/>
      <use x="311.597656" xlink:href="#DejaVuSans-115"/>
      <use x="363.697266" xlink:href="#DejaVuSans-58"/>
      <use x="397.388672" xlink:href="#DejaVuSans-32"/>
      <use x="429.175781" xlink:href="#DejaVuSans-53"/>
      <use x="492.798828" xlink:href="#DejaVuSans-50"/>
      <use x="556.421875" xlink:href="#DejaVuSans-49"/>
      <use x="620.044922" xlink:href="#DejaVuSans-32"/>
      <use x="651.832031" xlink:href="#DejaVuSans-77"/>
      <use x="738.111328" xlink:href="#DejaVuSans-101"/>
      <use x="799.634766" xlink:href="#DejaVuSans-97"/>
      <use x="860.914062" xlink:href="#DejaVuSans-110"/>
      <use x="924.292969" xlink:href="#DejaVuSans-58"/>
      <use x="957.984375" xlink:href="#DejaVuSans-56"/>
      <use x="1021.607422" xlink:href="#DejaVuSans-54"/>
      <use x="1085.230469" xlink:href="#DejaVuSans-46"/>
      <use x="1117.017578" xlink:href="#DejaVuSans-49"/>
      <use x="1180.640625" xlink:href="#DejaVuSans-57"/>
      <use x="1244.263672" xlink:href="#DejaVuSans-52"/>
     </g>
     <!-- 1%: 73.375  25%: 83.469  75%: 89.314 -->
     <defs>
      <path d="M 72.703125 32.078125 
Q 68.453125 32.078125 66.03125 28.46875 
Q 63.625 24.859375 63.625 18.40625 
Q 63.625 12.0625 66.03125 8.421875 
Q 68.453125 4.78125 72.703125 4.78125 
Q 76.859375 4.78125 79.265625 8.421875 
Q 81.6875 12.0625 81.6875 18.40625 
Q 81.6875 24.8125 79.265625 28.4375 
Q 76.859375 32.078125 72.703125 32.078125 
z
M 72.703125 38.28125 
Q 80.421875 38.28125 84.953125 32.90625 
Q 89.5 27.546875 89.5 18.40625 
Q 89.5 9.28125 84.9375 3.921875 
Q 80.375 -1.421875 72.703125 -1.421875 
Q 64.890625 -1.421875 60.34375 3.921875 
Q 55.8125 9.28125 55.8125 18.40625 
Q 55.8125 27.59375 60.375 32.9375 
Q 64.9375 38.28125 72.703125 38.28125 
z
M 22.3125 68.015625 
Q 18.109375 68.015625 15.6875 64.375 
Q 13.28125 60.75 13.28125 54.390625 
Q 13.28125 47.953125 15.671875 44.328125 
Q 18.0625 40.71875 22.3125 40.71875 
Q 26.5625 40.71875 28.96875 44.328125 
Q 31.390625 47.953125 31.390625 54.390625 
Q 31.390625 60.6875 28.953125 64.34375 
Q 26.515625 68.015625 22.3125 68.015625 
z
M 66.40625 74.21875 
L 74.21875 74.21875 
L 28.609375 -1.421875 
L 20.796875 -1.421875 
z
M 22.3125 74.21875 
Q 30.03125 74.21875 34.609375 68.875 
Q 39.203125 63.53125 39.203125 54.390625 
Q 39.203125 45.171875 34.640625 39.84375 
Q 30.078125 34.515625 22.3125 34.515625 
Q 14.546875 34.515625 10.03125 39.859375 
Q 5.515625 45.21875 5.515625 54.390625 
Q 5.515625 63.484375 10.046875 68.84375 
Q 14.59375 74.21875 22.3125 74.21875 
z
" id="DejaVuSans-37"/>
     </defs>
     <g transform="translate(475.213906 269.99465)scale(0.1 -0.1)">
      <use xlink:href="#DejaVuSans-49"/>
      <use x="63.623047" xlink:href="#DejaVuSans-37"/>
      <use x="158.642578" xlink:href="#DejaVuSans-58"/>
      <use x="192.333984" xlink:href="#DejaVuSans-32"/>
      <use x="224.121094" xlink:href="#DejaVuSans-55"/>
      <use x="287.744141" xlink:href="#DejaVuSans-51"/>
      <use x="351.367188" xlink:href="#DejaVuSans-46"/>
      <use x="383.154297" xlink:href="#DejaVuSans-51"/>
      <use x="446.777344" xlink:href="#DejaVuSans-55"/>
      <use x="510.400391" xlink:href="#DejaVuSans-53"/>
      <use x="574.023438" xlink:href="#DejaVuSans-32"/>
      <use x="605.810547" xlink:href="#DejaVuSans-32"/>
      <use x="637.597656" xlink:href="#DejaVuSans-50"/>
      <use x="701.220703" xlink:href="#DejaVuSans-53"/>
      <use x="764.84375" xlink:href="#DejaVuSans-37"/>
      <use x="859.863281" xlink:href="#DejaVuSans-58"/>
      <use x="893.554688" xlink:href="#DejaVuSans-32"/>
      <use x="925.341797" xlink:href="#DejaVuSans-56"/>
      <use x="988.964844" xlink:href="#DejaVuSans-51"/>
      <use x="1052.587891" xlink:href="#DejaVuSans-46"/>
      <use x="1084.375" xlink:href="#DejaVuSans-52"/>
      <use x="1147.998047" xlink:href="#DejaVuSans-54"/>
      <use x="1211.621094" xlink:href="#DejaVuSans-57"/>
      <use x="1275.244141" xlink:href="#DejaVuSans-32"/>
      <use x="1307.03125" xlink:href="#DejaVuSans-32"/>
      <use x="1338.818359" xlink:href="#DejaVuSans-55"/>
      <use x="1402.441406" xlink:href="#DejaVuSans-53"/>
      <use x="1466.064453" xlink:href="#DejaVuSans-37"/>
      <use x="1561.083984" xlink:href="#DejaVuSans-58"/>
      <use x="1594.775391" xlink:href="#DejaVuSans-32"/>
      <use x="1626.5625" xlink:href="#DejaVuSans-56"/>
      <use x="1690.185547" xlink:href="#DejaVuSans-57"/>
      <use x="1753.808594" xlink:href="#DejaVuSans-46"/>
      <use x="1785.595703" xlink:href="#DejaVuSans-51"/>
      <use x="1849.21875" xlink:href="#DejaVuSans-49"/>
      <use x="1912.841797" xlink:href="#DejaVuSans-52"/>
     </g>
    </g>
   </g>
  </g>
 </g>
 <defs>
  <clipPath id="pe035be3d5b">
   <rect height="216.608" width="1018.33" x="50.87" y="14.76"/>
  </clipPath>
 </defs>
</svg>
